<svg viewBox="0 0 512 512">
	<path fill="#FFFFFF" d="m0 216.800781h150.667969v78.398438h-150.667969zm0 0" />
	<path fill="#FFFFFF" d="m0 108.398438h60.335938v78.402343h-60.335938zm0 0" />
	<path fill="#FFFFFF" d="m0 325.199219h60.335938v78.402343h-60.335938zm0 0" />
	<path fill="#FFFFFF" d="m90.335938 325.199219h150.667968v78.402343h-150.667968zm0 0" />
	<path fill="#FFFFFF" d="m271 325.199219h150.667969v78.402343h-150.667969zm0 0" />
	<path fill="#FFFFFF" d="m271 108.398438h150.667969v78.402343h-150.667969zm0 0" />
	<path fill="#FFFFFF" d="m0 433.601562h150.667969v78.398438h-150.667969zm0 0" />
	<path fill="#FFFFFF" d="m90.335938 108.398438h150.667968v78.402343h-150.667968zm0 0" />
	<path fill="#FFFFFF" d="m180.667969 216.800781h150.664062v78.398438h-150.664062zm0 0" />
	<path fill="#FFFFFF" d="m0 0h150.667969v78.402344h-150.667969zm0 0" />
	<path fill="#FFFFFF" d="m180.667969 433.601562h150.664062v78.398438h-150.664062zm0 0" />
	<path fill="#FFFFFF" d="m361.332031 0h150.667969v78.402344h-150.667969zm0 0" />
	<path fill="#FFFFFF" d="m180.667969 0h150.664062v78.402344h-150.664062zm0 0" />
	<path fill="#FFFFFF" d="m451.667969 108.398438h60.332031v78.402343h-60.332031zm0 0" />
	<path fill="#FFFFFF" d="m361.332031 433.601562h150.667969v78.398438h-150.667969zm0 0" />
	<path fill="#FFFFFF" d="m361.332031 216.800781h150.667969v78.398438h-150.667969zm0 0" />
	<path fill="#FFFFFF" d="m451.667969 325.199219h60.332031v78.402343h-60.332031zm0 0" />
</svg>